<svg width="22" height="21" viewBox="0 0 22 21" fill="none" xmlns="http://www.w3.org/2000/svg">
<path d="M5.91699 13.3539L8.90999 9.4649L12.324 12.1449L15.253 8.3649" stroke="#3C3C3C" stroke-width="1.5" stroke-linecap="round" stroke-linejoin="round"/>
<path fill-rule="evenodd" clip-rule="evenodd" d="M18.6671 0.850006C19.7291 0.850006 20.5891 1.71001 20.5891 2.77201C20.5891 3.83301 19.7291 4.69401 18.6671 4.69401C17.6051 4.69401 16.7451 3.83301 16.7451 2.77201C16.7451 1.71001 17.6051 0.850006 18.6671 0.850006Z" stroke="#3C3C3C" stroke-width="1.5" stroke-linecap="round" stroke-linejoin="round"/>
<path d="M19.7552 7.76901C19.8882 8.66401 19.9492 9.67201 19.9492 10.803C19.9492 17.741 17.6372 20.053 10.6992 20.053C3.76222 20.053 1.44922 17.741 1.44922 10.803C1.44922 3.86601 3.76222 1.55301 10.6992 1.55301C11.8092 1.55301 12.8002 1.61201 13.6822 1.74001" stroke="#3C3C3C" stroke-width="1.5" stroke-linecap="round" stroke-linejoin="round"/>
</svg>
