<svg width="25" height="24" viewBox="0 0 25 24" fill="none" xmlns="http://www.w3.org/2000/svg">
<g clip-path="url(#clip0_2009_70509)">
<path d="M12.4922 6.75C13.9419 6.75 15.1172 5.57475 15.1172 4.125C15.1172 2.67525 13.9419 1.5 12.4922 1.5C11.0424 1.5 9.86719 2.67525 9.86719 4.125C9.86719 5.57475 11.0424 6.75 12.4922 6.75Z" stroke="#475467" stroke-width="1.5" stroke-linecap="round" stroke-linejoin="round"/>
<path d="M14.9267 12.6281L18.1892 15.1594C18.4048 15.3389 18.6798 15.4313 18.9602 15.4186C19.2405 15.4058 19.5059 15.2886 19.7044 15.0902C19.9028 14.8918 20.0199 14.6264 20.0327 14.346C20.0455 14.0657 19.9531 13.7907 19.7735 13.575L16.061 8.80313C15.888 8.62836 15.6822 8.48952 15.4553 8.39459C15.2285 8.29966 14.9851 8.25053 14.7392 8.25H10.2392C9.74005 8.25267 9.26196 8.45131 8.90791 8.80313L5.19541 13.575C5.00211 13.7896 4.89873 14.0703 4.90668 14.359C4.91462 14.6476 5.03329 14.9222 5.23811 15.1258C5.44292 15.3294 5.71819 15.4465 6.00693 15.4527C6.29566 15.459 6.57574 15.3539 6.78916 15.1594L10.0517 12.6281L7.44541 20.8406C7.38262 20.9748 7.34688 21.1201 7.34023 21.2681C7.33357 21.4161 7.35614 21.564 7.40663 21.7032C7.45712 21.8425 7.53455 21.9705 7.6345 22.0799C7.73445 22.1892 7.85497 22.2778 7.98916 22.3406C8.12336 22.4034 8.26861 22.4392 8.41661 22.4458C8.56462 22.4525 8.71249 22.4299 8.85178 22.3794C8.99107 22.3289 9.11904 22.2515 9.22841 22.1515C9.33777 22.0516 9.42637 21.9311 9.48916 21.7969L12.4892 17.0719L15.4892 21.7969C15.5478 21.9369 15.6341 22.0637 15.743 22.1695C15.8519 22.2753 15.981 22.3579 16.1227 22.4125C16.2644 22.467 16.4157 22.4924 16.5674 22.4869C16.7191 22.4815 16.8681 22.4453 17.0055 22.3808C17.1429 22.3162 17.2658 22.2245 17.3669 22.1111C17.4679 21.9978 17.5449 21.8652 17.5933 21.7213C17.6417 21.5774 17.6605 21.4252 17.6485 21.2738C17.6365 21.1225 17.594 20.9751 17.5235 20.8406L14.9267 12.6281Z" stroke="#475467" stroke-width="1.5" stroke-linecap="round" stroke-linejoin="round"/>
</g>
<defs>
<clipPath id="clip0_2009_70509">
<rect width="24" height="24" fill="white" transform="translate(0.5)"/>
</clipPath>
</defs>
</svg>
