<svg width="20" height="21" viewBox="0 0 20 21" fill="none" xmlns="http://www.w3.org/2000/svg">
<path fill-rule="evenodd" clip-rule="evenodd" d="M19 5.1738C19 7.2024 17.3548 8.8476 15.3262 8.8476C13.2976 8.8476 11.6533 7.2024 11.6533 5.1738C11.6533 3.1452 13.2976 1.5 15.3262 1.5C17.3548 1.5 19 3.1452 19 5.1738Z" stroke="#3C3C3C" stroke-width="1.5" stroke-linecap="round" stroke-linejoin="round"/>
<path fill-rule="evenodd" clip-rule="evenodd" d="M8.3467 5.1738C8.3467 7.2024 6.7024 8.8476 4.6729 8.8476C2.6452 8.8476 1 7.2024 1 5.1738C1 3.1452 2.6452 1.5 4.6729 1.5C6.7024 1.5 8.3467 3.1452 8.3467 5.1738Z" stroke="#3C3C3C" stroke-width="1.5" stroke-linecap="round" stroke-linejoin="round"/>
<path fill-rule="evenodd" clip-rule="evenodd" d="M19 15.7619C19 17.7905 17.3548 19.4348 15.3262 19.4348C13.2976 19.4348 11.6533 17.7905 11.6533 15.7619C11.6533 13.7333 13.2976 12.0881 15.3262 12.0881C17.3548 12.0881 19 13.7333 19 15.7619Z" stroke="#3C3C3C" stroke-width="1.5" stroke-linecap="round" stroke-linejoin="round"/>
<path fill-rule="evenodd" clip-rule="evenodd" d="M8.3467 15.7619C8.3467 17.7905 6.7024 19.4348 4.6729 19.4348C2.6452 19.4348 1 17.7905 1 15.7619C1 13.7333 2.6452 12.0881 4.6729 12.0881C6.7024 12.0881 8.3467 13.7333 8.3467 15.7619Z" stroke="#3C3C3C" stroke-width="1.5" stroke-linecap="round" stroke-linejoin="round"/>
</svg>
