<svg width="16" height="17" viewBox="0 0 16 17" fill="none" xmlns="http://www.w3.org/2000/svg">
<g clip-path="url(#clip0_1508_39912)">
<path fill-rule="evenodd" clip-rule="evenodd" d="M14.4637 7.67576C14.9206 7.9116 15.3057 8.25587 15.5839 8.71286C15.8524 9.15376 15.9953 9.63175 15.9945 10.1509C15.9934 10.9805 15.9772 11.8106 15.999 12.6397C16.0212 13.483 15.6817 14.146 15.0689 14.6903C14.3625 15.3176 13.5217 15.6927 12.6305 15.9644C11.2162 16.3954 9.76428 16.5331 8.29227 16.4941C7.04478 16.4611 5.81741 16.295 4.62842 15.9008C3.73778 15.6056 2.90028 15.2117 2.22431 14.5368C1.71528 14.0286 1.44185 13.4273 1.45697 12.6914C1.475 11.811 1.4572 10.9299 1.46433 10.0492C1.46592 9.85227 1.49834 9.65417 1.53317 9.45961C1.54852 9.37386 1.54071 9.33235 1.46165 9.28575C0.496082 8.71641 0.00412589 7.87258 0.00521579 6.74609C0.00589698 5.94487 0.0208832 5.14324 0.000901582 4.34248C-0.0196704 3.51902 0.312705 2.86898 0.906205 2.33233C1.58517 1.71843 2.39651 1.34547 3.257 1.07253C4.70553 0.613039 6.19597 0.467044 7.70844 0.506691C8.92732 0.538655 10.1271 0.69929 11.2922 1.07167C12.086 1.32537 12.8394 1.66356 13.4875 2.20039C14.0218 2.64301 14.4259 3.17097 14.5195 3.88571C14.5334 3.99229 14.5374 4.10077 14.5376 4.20839C14.539 5.12328 14.5432 6.03817 14.535 6.95297C14.5329 7.18876 14.4897 7.42414 14.4637 7.67576ZM7.19928 6.32034C8.44336 6.31447 9.61242 6.18803 10.7492 5.83662C11.4188 5.62965 12.0625 5.36458 12.6088 4.90936C13.2335 4.3889 13.2481 3.87912 12.6126 3.37812C12.2913 3.12487 11.9267 2.91222 11.5542 2.74144C10.596 2.3021 9.57241 2.10577 8.52773 2.01329C6.89074 1.86838 5.27559 1.97223 3.69959 2.4681C3.04755 2.67324 2.42099 2.93936 1.89974 3.39835C1.31651 3.91204 1.31946 4.36294 1.90301 4.87767C2.31754 5.24332 2.80741 5.47933 3.31935 5.67139C4.58918 6.14761 5.91155 6.30747 7.19928 6.32034ZM2.87453 10.0002C2.97021 10.1771 3.03002 10.3283 3.12412 10.4538C3.36049 10.769 3.68592 10.9794 4.02824 11.1613C4.99921 11.6774 6.05042 11.9174 7.13147 12.0456C8.28042 12.1818 9.42954 12.1719 10.5755 12.0114C11.5341 11.8771 12.4663 11.646 13.3343 11.2014C13.7304 10.9984 14.1059 10.7642 14.3724 10.3947C14.5969 10.0834 14.6132 9.79634 14.3645 9.50544C14.1724 9.28065 13.9228 9.10429 13.6923 8.91428C13.666 8.89264 13.5832 8.90396 13.5515 8.93024C12.8759 9.48908 12.096 9.84363 11.2696 10.1084C10.2097 10.4481 9.11978 10.6068 8.01121 10.663C6.7243 10.7282 5.44939 10.6524 4.19336 10.3525C3.77189 10.2517 3.3555 10.1294 2.87453 10.0002ZM2.91699 12.195C2.91699 12.3314 2.92966 12.4405 2.91486 12.5459C2.84142 13.0684 3.10005 13.4229 3.48828 13.7182C3.87565 14.0127 4.3063 14.226 4.75884 14.3959C5.79248 14.7839 6.86699 14.9648 7.96562 15.024C9.36324 15.0993 10.7423 14.9903 12.0903 14.5984C12.7954 14.3934 13.4754 14.1247 14.0488 13.6465C14.5325 13.2432 14.6599 12.8328 14.5117 12.2021C14.4655 12.2257 14.4203 12.2473 14.3764 12.2713C13.1576 12.9333 11.8632 13.3689 10.4833 13.5125C9.85928 13.5775 9.22764 13.5724 8.59921 13.5921C6.9105 13.6449 5.29807 13.3145 3.76212 12.6118C3.48547 12.4852 3.21599 12.343 2.91699 12.195ZM1.46115 6.37349C1.46115 6.5188 1.47414 6.64347 1.45883 6.76455C1.39812 7.24559 1.61773 7.60033 1.98934 7.85244C2.34379 8.09287 2.7154 8.32144 3.10736 8.49035C4.14404 8.93701 5.2438 9.12739 6.36518 9.19609C7.86557 9.28807 9.34725 9.18095 10.7911 8.73332C11.422 8.53777 12.0161 8.2671 12.5544 7.87108C13.0741 7.48875 13.1536 6.9782 13.0606 6.39577C13.0461 6.397 13.034 6.39509 13.0248 6.39941C12.994 6.41368 12.9639 6.42973 12.9341 6.44596C11.8702 7.02722 10.7411 7.4196 9.54657 7.62679C8.74326 7.7661 7.93369 7.77274 7.12153 7.78415C5.16846 7.81166 3.33238 7.38009 1.61501 6.44665C1.57227 6.42341 1.52709 6.40473 1.46115 6.37349Z" fill="#434343"/>
</g>
<defs>
<clipPath id="clip0_1508_39912">
<rect width="16" height="16" fill="white" transform="translate(0 0.5)"/>
</clipPath>
</defs>
</svg>
