<svg width="12" height="14" viewBox="0 0 12 14" fill="none" xmlns="http://www.w3.org/2000/svg">
<path fill-rule="evenodd" clip-rule="evenodd" d="M11.3309 2.2654H7.83932C7.86053 2.21238 7.87182 2.15592 7.87264 2.09882C7.87264 1.61107 7.67888 1.1433 7.33399 0.798413C6.9891 0.453523 6.52133 0.259766 6.03358 0.259766C5.54583 0.259766 5.07806 0.453523 4.73317 0.798413C4.38828 1.1433 4.19452 1.61107 4.19452 2.09882C4.19534 2.15592 4.20663 2.21238 4.22784 2.2654H0.669666C0.537125 2.2654 0.410013 2.31806 0.316293 2.41178C0.222573 2.5055 0.169922 2.63261 0.169922 2.76515C0.169922 2.89769 0.222573 3.0248 0.316293 3.11852C0.410013 3.21224 0.537125 3.26489 0.669666 3.26489H1.50257V12.0937C1.50432 12.4024 1.62774 12.698 1.84604 12.9163C2.06434 13.1346 2.35992 13.258 2.66864 13.2598H9.33189C9.64061 13.258 9.93619 13.1346 10.1545 12.9163C10.3728 12.698 10.4962 12.4024 10.498 12.0937V3.26489H11.3309C11.4634 3.26489 11.5905 3.21224 11.6842 3.11852C11.778 3.0248 11.8306 2.89769 11.8306 2.76515C11.8306 2.63261 11.778 2.5055 11.6842 2.41178C11.5905 2.31806 11.4634 2.2654 11.3309 2.2654ZM5.19401 2.09882C5.19401 1.87615 5.28247 1.66261 5.43992 1.50516C5.59737 1.34771 5.81091 1.25925 6.03358 1.25925C6.25625 1.25925 6.4698 1.34771 6.62725 1.50516C6.7847 1.66261 6.87315 1.87615 6.87315 2.09882C6.86618 2.15413 6.86618 2.2101 6.87315 2.2654H5.1607C5.1819 2.21238 5.1932 2.15592 5.19401 2.09882ZM9.49847 12.0937C9.49847 12.1379 9.48092 12.1802 9.44968 12.2115C9.41844 12.2427 9.37607 12.2603 9.33189 12.2603H2.66864C2.62446 12.2603 2.58209 12.2427 2.55085 12.2115C2.51961 12.1802 2.50206 12.1379 2.50206 12.0937V3.26489H9.49847V12.0937ZM4.66762 10.5874C4.80016 10.5874 4.92727 10.5347 5.02099 10.441C5.11471 10.3473 5.16736 10.2202 5.16736 10.0876V5.49666C5.16736 5.36412 5.11471 5.23701 5.02099 5.14329C4.92727 5.04957 4.80016 4.99692 4.66762 4.99692C4.53508 4.99692 4.40796 5.04957 4.31424 5.14329C4.22052 5.23701 4.16787 5.36412 4.16787 5.49666V10.0943C4.16787 10.1596 4.18084 10.2243 4.20603 10.2846C4.23123 10.3448 4.26814 10.3995 4.31464 10.4453C4.36113 10.4912 4.41628 10.5274 4.47687 10.5518C4.53747 10.5762 4.6023 10.5883 4.66762 10.5874ZM7.56523 10.5512C7.5042 10.576 7.43881 10.5883 7.37293 10.5874C7.24154 10.5874 7.11543 10.5357 7.0219 10.4434C6.92837 10.3511 6.87494 10.2257 6.87319 10.0943V5.49666C6.87319 5.36412 6.92584 5.23701 7.01956 5.14329C7.11328 5.04957 7.24039 4.99692 7.37293 4.99692C7.50547 4.99692 7.63259 5.04957 7.72631 5.14329C7.82003 5.23701 7.87268 5.36412 7.87268 5.49666V10.0876C7.87357 10.1535 7.86126 10.2189 7.83646 10.2799C7.81167 10.341 7.77489 10.3964 7.7283 10.443C7.68172 10.4896 7.62627 10.5264 7.56523 10.5512Z" fill="#FF6868"/>
</svg>
