<svg width="49" height="49" viewBox="0 0 49 49" fill="none" xmlns="http://www.w3.org/2000/svg">
<path d="M24.3267 6.03125C10.4527 6.03125 5.82666 10.6573 5.82666 24.5312C5.82666 38.4052 10.4527 43.0312 24.3267 43.0312C38.2007 43.0312 42.8267 38.4052 42.8267 24.5312" stroke="#00A3FF" stroke-width="2.5" stroke-linecap="round" stroke-linejoin="round"/>
<path fill-rule="evenodd" clip-rule="evenodd" d="M39.3832 9.13853V9.13853C37.3972 7.38053 34.3632 7.56453 32.6052 9.55053C32.6052 9.55053 23.8672 19.4205 20.8372 22.8465C17.8032 26.2705 20.0272 31.0005 20.0272 31.0005C20.0272 31.0005 25.0352 32.5865 28.0232 29.2105C31.0132 25.8345 39.7952 15.9165 39.7952 15.9165C41.5532 13.9305 41.3672 10.8965 39.3832 9.13853Z" stroke="#00A3FF" stroke-width="2.5" stroke-linecap="round" stroke-linejoin="round"/>
<path d="M30.3442 12.1328L37.5342 18.4988" stroke="#00A3FF" stroke-width="2.5" stroke-linecap="round" stroke-linejoin="round"/>
</svg>
