<svg width="25" height="25" viewBox="0 0 25 25" fill="none" xmlns="http://www.w3.org/2000/svg">
<path d="M8.45801 6.10156L12.3955 2.16406L16.333 6.10156" stroke="#8195BB" stroke-width="1.5" stroke-linecap="round" stroke-linejoin="round"/>
<path d="M12.3955 12.6641V2.16406" stroke="#8195BB" stroke-width="1.5" stroke-linecap="round" stroke-linejoin="round"/>
<path d="M16.8955 9.66406H19.1455C19.3444 9.66406 19.5352 9.74308 19.6758 9.88373C19.8165 10.0244 19.8955 10.2152 19.8955 10.4141V20.1641C19.8955 20.363 19.8165 20.5537 19.6758 20.6944C19.5352 20.835 19.3444 20.9141 19.1455 20.9141H5.64551C5.4466 20.9141 5.25583 20.835 5.11518 20.6944C4.97453 20.5537 4.89551 20.363 4.89551 20.1641V10.4141C4.89551 10.2152 4.97453 10.0244 5.11518 9.88373C5.25583 9.74308 5.4466 9.66406 5.64551 9.66406H7.89551" stroke="#8195BB" stroke-width="1.5" stroke-linecap="round" stroke-linejoin="round"/>
</svg>
