<svg width="17" height="17" viewBox="0 0 17 17" fill="none" xmlns="http://www.w3.org/2000/svg">
<g clip-path="url(#clip0_1612_30427)">
<g clip-path="url(#clip1_1612_30427)">
<path d="M16.5 8.54789C16.5003 7.01897 16.0625 5.52198 15.2385 4.23417C14.4144 2.94635 13.2385 1.92165 11.8501 1.28139C10.4617 0.641135 8.91893 0.41214 7.40442 0.62152C5.88991 0.830901 4.46712 1.46989 3.30451 2.46282C2.1419 3.45575 1.28816 4.76104 0.844396 6.22414C0.400627 7.68723 0.385409 9.24685 0.800544 10.7183C1.21568 12.1898 2.04378 13.5115 3.18679 14.5269C4.32981 15.5424 5.73986 16.209 7.25 16.4479V10.8599H5.219V8.54789H7.25V6.78489C7.20627 6.37334 7.2536 5.9572 7.38863 5.56598C7.52366 5.17476 7.74309 4.81803 8.03136 4.52107C8.31964 4.22411 8.6697 3.99419 9.05674 3.84762C9.44379 3.70104 9.85833 3.64139 10.271 3.67289C10.871 3.68077 11.4696 3.73291 12.062 3.82889V5.79989H11.054C10.8823 5.77743 10.7077 5.79388 10.5432 5.848C10.3787 5.90213 10.2285 5.99255 10.1037 6.11258C9.97887 6.2326 9.88263 6.37916 9.8221 6.5414C9.76157 6.70365 9.73829 6.87743 9.754 7.04989V8.54989H11.973L11.618 10.8619H9.75V16.4529C11.6322 16.1551 13.3464 15.1953 14.5838 13.7461C15.8213 12.2969 16.5008 10.4535 16.5 8.54789Z" fill="#246BFD"/>
</g>
</g>
<defs>
<clipPath id="clip0_1612_30427">
<rect width="16" height="16" fill="white" transform="translate(0.5 0.5)"/>
</clipPath>
<clipPath id="clip1_1612_30427">
<rect width="16" height="16" fill="white" transform="translate(0.5 0.5)"/>
</clipPath>
</defs>
</svg>
