<svg width="19" height="18" viewBox="0 0 19 18" fill="none" xmlns="http://www.w3.org/2000/svg">
<path d="M8.14342 14.3829H1.6709" stroke="#3C3C3C" stroke-width="1.5" stroke-linecap="round" stroke-linejoin="round"/>
<path fill-rule="evenodd" clip-rule="evenodd" d="M12.2051 14.3839C12.2051 16.4257 12.886 17.1057 14.9269 17.1057C16.9678 17.1057 17.6487 16.4257 17.6487 14.3839C17.6487 12.3421 16.9678 11.6621 14.9269 11.6621C12.886 11.6621 12.2051 12.3421 12.2051 14.3839Z" stroke="#3C3C3C" stroke-width="1.5" stroke-linecap="round" stroke-linejoin="round"/>
<path d="M11.1768 3.89439H17.6484" stroke="#3C3C3C" stroke-width="1.5" stroke-linecap="round" stroke-linejoin="round"/>
<path fill-rule="evenodd" clip-rule="evenodd" d="M7.11537 3.89293C7.11537 1.85204 6.43448 1.17114 4.39358 1.17114C2.35179 1.17114 1.6709 1.85204 1.6709 3.89293C1.6709 5.93472 2.35179 6.61472 4.39358 6.61472C6.43448 6.61472 7.11537 5.93472 7.11537 3.89293Z" stroke="#3C3C3C" stroke-width="1.5" stroke-linecap="round" stroke-linejoin="round"/>
</svg>
