<svg width="17" height="17" viewBox="0 0 17 17" fill="none" xmlns="http://www.w3.org/2000/svg">
<path d="M16.1714 7.045H8.53536V10.318H12.8634C12.1714 12.5 10.4624 13.227 8.50036 13.227C7.74006 13.228 6.99074 13.0455 6.31598 12.6951C5.64123 12.3447 5.06095 11.8368 4.62438 11.2143C4.1878 10.5918 3.90782 9.87322 3.80818 9.11947C3.70854 8.36573 3.79219 7.59907 4.05203 6.88454C4.31186 6.17001 4.74022 5.5287 5.30075 5.01503C5.86129 4.50135 6.53746 4.13046 7.2719 3.93382C8.00633 3.73719 8.77737 3.72061 9.51958 3.8855C10.2618 4.05039 10.9533 4.39188 11.5354 4.881L13.9134 2.616C12.9557 1.73383 11.7972 1.09875 10.5385 0.765867C9.27969 0.432988 7.95869 0.412377 6.69015 0.705826C5.42162 0.999275 4.24387 1.59791 3.25917 2.44977C2.27447 3.30163 1.51257 4.38096 1.03961 5.59406C0.566654 6.80716 0.396939 8.11737 0.545198 9.41094C0.693457 10.7045 1.15521 11.9423 1.89037 13.017C2.62553 14.0916 3.61187 14.9706 4.76377 15.5775C5.91568 16.1845 7.19832 16.5012 8.50036 16.5C12.9114 16.5 16.9004 13.591 16.1714 7.045Z" fill="#FF968E"/>
</svg>
