<svg width="16" height="16" viewBox="0 0 16 16" fill="none" xmlns="http://www.w3.org/2000/svg">
<g clip-path="url(#clip0_1540_53306)">
<path d="M15.9958 15.9995V15.9988H15.9998V10.1308C15.9998 7.26016 15.3818 5.04883 12.0258 5.04883C10.4125 5.04883 9.32985 5.93416 8.88785 6.77349H8.84118V5.31683H5.65918V15.9988H8.97251V10.7095C8.97251 9.31682 9.23651 7.97015 10.9612 7.97015C12.6605 7.97015 12.6858 9.55948 12.6858 10.7988V15.9995H15.9958Z" fill="#A6A6A6"/>
<path d="M0.263672 5.31812H3.58101V16.0001H0.263672V5.31812Z" fill="#A6A6A6"/>
<path d="M1.92133 0C0.860667 0 0 0.860667 0 1.92133C0 2.982 0.860667 3.86067 1.92133 3.86067C2.982 3.86067 3.84267 2.982 3.84267 1.92133C3.842 0.860667 2.98133 0 1.92133 0V0Z" fill="#A6A6A6"/>
</g>
<defs>
<clipPath id="clip0_1540_53306">
<rect width="16" height="16" fill="white"/>
</clipPath>
</defs>
</svg>
