<svg width="161" height="161" viewBox="0 0 161 161" fill="none" xmlns="http://www.w3.org/2000/svg">
<path d="M41.2336 110.227C41.2336 110.227 46.6469 99.3136 54.5269 99.3136C62.4069 99.3136 66.4336 108.48 75.1669 108.48C83.8936 108.48 93.6869 85.4937 103.58 85.4937C113.46 85.4937 120.567 101.434 120.567 101.434" stroke="#D1D1D1" stroke-width="8" stroke-linecap="round" stroke-linejoin="round"/>
<path fill-rule="evenodd" clip-rule="evenodd" d="M68.3541 61.1992C68.3541 66.9325 63.7075 71.5858 57.9675 71.5858C52.2341 71.5858 47.5875 66.9325 47.5875 61.1992C47.5875 55.4658 52.2341 50.8125 57.9675 50.8125C63.7075 50.8192 68.3541 55.4658 68.3541 61.1992Z" stroke="#D1D1D1" stroke-width="8" stroke-linecap="round" stroke-linejoin="round"/>
<path fill-rule="evenodd" clip-rule="evenodd" d="M19.0977 80.5009C19.0977 126.748 34.5177 142.168 80.7644 142.168C127.011 142.168 142.431 126.748 142.431 80.5009C142.431 34.2542 127.011 18.8342 80.7644 18.8342C34.5177 18.8342 19.0977 34.2542 19.0977 80.5009Z" stroke="#D1D1D1" stroke-width="8" stroke-linecap="round" stroke-linejoin="round"/>
</svg>
