<svg width="22" height="19" viewBox="0 0 22 19" fill="none" xmlns="http://www.w3.org/2000/svg">
<path fill-rule="evenodd" clip-rule="evenodd" d="M10.9728 17.8682C7.7338 17.8682 4.9668 17.3782 4.9668 15.4162C4.9668 13.4542 7.7158 11.7462 10.9728 11.7462C14.2118 11.7462 16.9788 13.4382 16.9788 15.3992C16.9788 17.3602 14.2298 17.8682 10.9728 17.8682Z" stroke="#3C3C3C" stroke-width="1.5" stroke-linecap="round" stroke-linejoin="round"/>
<path fill-rule="evenodd" clip-rule="evenodd" d="M10.9731 8.94869C13.0991 8.94869 14.8231 7.22569 14.8231 5.09969C14.8231 2.97369 13.0991 1.24969 10.9731 1.24969C8.84706 1.24969 7.12306 2.97369 7.12306 5.09969C7.11706 7.21769 8.82706 8.94169 10.9461 8.94869H10.9731Z" stroke="#3C3C3C" stroke-width="1.5" stroke-linecap="round" stroke-linejoin="round"/>
<path d="M17.3623 7.8916C18.5993 7.5606 19.5113 6.4326 19.5113 5.0896C19.5113 3.6886 18.5183 2.5186 17.1963 2.2486" stroke="#3C3C3C" stroke-width="1.5" stroke-linecap="round" stroke-linejoin="round"/>
<path d="M17.9434 11.0444C19.6974 11.0444 21.1954 12.2334 21.1954 13.2954C21.1954 13.9204 20.6784 14.6014 19.8944 14.7854" stroke="#3C3C3C" stroke-width="1.5" stroke-linecap="round" stroke-linejoin="round"/>
<path d="M4.58359 7.8916C3.34559 7.5606 2.43359 6.4326 2.43359 5.0896C2.43359 3.6886 3.42759 2.5186 4.74859 2.2486" stroke="#3C3C3C" stroke-width="1.5" stroke-linecap="round" stroke-linejoin="round"/>
<path d="M4.002 11.0444C2.248 11.0444 0.75 12.2334 0.75 13.2954C0.75 13.9204 1.267 14.6014 2.052 14.7854" stroke="#3C3C3C" stroke-width="1.5" stroke-linecap="round" stroke-linejoin="round"/>
</svg>
