<svg width="16" height="17" viewBox="0 0 16 17" fill="none" xmlns="http://www.w3.org/2000/svg">
<g clip-path="url(#clip0_1508_39916)">
<path fill-rule="evenodd" clip-rule="evenodd" d="M2.23771e-06 8.50112C0.00327542 4.08705 3.58723 0.496487 7.98627 0.500003C12.4199 0.503579 16.0046 4.09226 15.9999 8.5227C15.9953 12.9428 12.4033 16.4994 7.9433 16.4999C3.58475 16.5007 -0.00327095 12.8875 2.23771e-06 8.50112ZM10.148 7.75975C10.1944 6.77991 9.84314 4.82752 9.42926 3.7504C9.22754 3.22548 8.99641 2.71528 8.60903 2.29698C8.18848 1.84286 7.79861 1.82922 7.40062 2.2991C7.15452 2.58963 6.94394 2.92368 6.78029 3.26803C6.26124 4.36036 6.03679 5.53325 5.91125 6.7273C5.87531 7.06917 5.85797 7.41297 5.83173 7.75969C7.2929 7.75975 8.72086 7.75975 10.148 7.75975ZM5.82955 9.23911C5.85731 9.59819 5.87549 9.93805 5.91132 10.2761C6.03758 11.47 6.25833 12.6447 6.78313 13.734C6.96419 14.1098 7.2081 14.4694 7.48529 14.7812C7.81498 15.1521 8.16169 15.1431 8.50962 14.7908C8.71928 14.5786 8.90161 14.3277 9.04885 14.0674C9.53928 13.2006 9.79022 12.2491 9.9474 11.2751C10.0553 10.6063 10.1135 9.9295 10.1961 9.23904C8.71801 9.23911 7.29005 9.23911 5.82955 9.23911ZM5.57915 2.43949C3.25513 3.33113 1.69654 5.5892 1.51537 7.76035C2.46556 7.76035 3.41497 7.76035 4.38601 7.76035C4.42111 5.91634 4.81595 4.16009 5.57915 2.43949ZM10.4221 2.44379C11.1844 4.16221 11.5777 5.91931 11.6144 7.76175C12.5872 7.76175 13.537 7.76175 14.4879 7.76175C14.2769 5.45051 12.6207 3.26942 10.4221 2.44379ZM5.48932 14.512C5.2354 13.6762 4.92106 12.8254 4.72576 11.9482C4.52833 11.0612 4.44863 10.1481 4.31697 9.24377C3.40599 9.24377 2.45768 9.24377 1.50779 9.24377C1.77777 11.8795 3.71737 13.8996 5.48932 14.512ZM10.4326 14.5349C12.287 14.1289 14.5464 11.1537 14.4777 9.24256C13.529 9.24256 12.5803 9.24256 11.612 9.24256C11.5799 11.0891 11.1792 12.8431 10.4326 14.5349Z" fill="#434343"/>
</g>
<defs>
<clipPath id="clip0_1508_39916">
<rect width="15.9999" height="16" fill="white" transform="translate(0 0.5)"/>
</clipPath>
</defs>
</svg>
