<svg width="25" height="25" viewBox="0 0 25 25" fill="none" xmlns="http://www.w3.org/2000/svg">
<path fill-rule="evenodd" clip-rule="evenodd" d="M20.0666 7.13299C20.0666 4.38211 18.1859 3.27936 15.4781 3.27936H9.11919C6.49463 3.27936 4.52771 4.30693 4.52771 6.94953V21.6733C4.52771 22.3992 5.30866 22.8563 5.94124 22.5014L12.3232 18.9215L18.65 22.4954C19.2836 22.8523 20.0666 22.3951 20.0666 21.6683V7.13299Z" stroke="#101828" stroke-width="1.5" stroke-linecap="round" stroke-linejoin="round"/>
<path fill-rule="evenodd" clip-rule="evenodd" d="M8.54527 11.1653C8.09818 9.76951 8.6211 8.03409 10.0865 7.56243C10.8574 7.31368 11.8086 7.52118 12.349 8.26659C12.8586 7.49368 13.8374 7.31534 14.6074 7.56243C16.0724 8.03409 16.5982 9.76951 16.1515 11.1653C15.4557 13.3778 13.0278 14.5303 12.349 14.5303C11.6707 14.5303 9.26443 13.4037 8.54527 11.1653Z" stroke="#130F26" stroke-width="1.5" stroke-linecap="round" stroke-linejoin="round"/>
</svg>
